{"title":"Hercules 2014 EXTENDED HDRIP XVID AC3 ACAB","uid":11254508,"size":1200185770,"categoryP":"video","categoryS":"movies","magnet":"?xt=urn:btih:7643d87b7120f8dabaa3ebd88dee7a9e09dbe7f8&amp;dn=Hercules+2014+EXTENDED+HDRIP+XVID+AC3+ACAB&amp;tr=udp%3A%2F%2Ftracker.openbittorrent.com%3A80&amp;tr=udp%3A%2F%2Fopen.demonii.com%3A1337&amp;tr=udp%3A%2F%2Ftracker.coppersurfer.tk%3A6969&amp;tr=udp%3A%2F%2Fexodus.desync.com%3A6969","seeders":17,"leechers":2,"uploader":"xxxlavalxxx","files":-1,"time":1413881880,"description":"[IMG]http://i.imgur.com/YkqirOr.jpg[/IMG]\n\n &lt;a href=&quot;\nhttp://www.imdb.com/title/tt1267297/&quot; rel=&quot;nofollow&quot; target=&quot;_NEW&quot;&gt;\nhttp://www.imdb.com/title/tt1267297/&lt;/a&gt;\n\n\nHaving endured his legendary twelve labors, Hercules, the Greek demigod, has his life as a sword-for-hire tested when the King of Thrace and his daughter seek his aid in defeating a tyrannical warlord.\n\nDirector: Brett Ratner\nWriters: Ryan Condal (screenplay), Evan Spiliotopoulos (screenplay)\nStars: Dwayne Johnson, John Hurt, Ian McShane\nGenres: Action | Adventure\nCountry: USA\nLanguage: English\n\n\nFormat                                   : AVI\nFormat/Info                              : Audio Video Interleave\nFile size                                : 1.09 GiB\nDuration                                 : 1h 41mn\nOverall bit rate                         : 1 540 Kbps\n\nVideo\nID                                       : 0\nFormat                                   : MPEG-4 Visual\nFormat profile                           : Advanced Simple@L5\nFormat settings, BVOP                    : 2\nFormat settings, QPel                    : No\nFormat settings, GMC                     : No warppoints\nFormat settings, Matrix                  : Default (H.263)\nMuxing mode                              : Packed bitstream\nCodec ID                                 : XVID\nCodec ID/Hint                            : XviD\nDuration                                 : 1h 41mn\nBit rate                                 : 1 149 Kbps\nWidth                                    : 720 pixels\nHeight                                   : 304 pixels\nDisplay aspect ratio                     : 2.35:1\nFrame rate                               : 23.976 fps\nColor space                              : YUV\nChroma subsampling                       : 4:2:0\nBit depth                                : 8 bits\nScan type                                : Progressive\nCompression mode                         : Lossy\nBits/(Pixel*Frame)                       : 0.219\nStream size                              : 835 MiB (75%)\nWriting library                          : XviD 1.2.1 (UTC 2008-12-04)\n\nAudio\nID                                       : 1\nFormat                                   : AC-3\nFormat/Info                              : Audio Coding 3\nMode extension                           : CM (complete main)\nFormat settings, Endianness              : Big\nCodec ID                                 : 2000\nDuration                                 : 1h 41mn\nBit rate mode                            : Constant\nBit rate                                 : 384 Kbps\nChannel(s)                               : 6 channels\nChannel positions                        : Front: L C R, Side: L R, LFE\nSampling rate                            : 48.0 KHz\nBit depth                                : 16 bits\nCompression mode                         : Lossy\nStream size                              : 279 MiB (25%)\nAlignment                                : Aligned on interleaves\nInterleave, duration                     : 64 ms (1.53 video frames)\nInterleave, preload duration             : 192 ms\nTitle                                    : English\n\n &lt;a href=&quot;\nhttp://i.imgur.com/bXWsaWZ.jpg&quot; rel=&quot;nofollow&quot; target=&quot;_NEW&quot;&gt;\nhttp://i.imgur.com/bXWsaWZ.jpg&lt;/a&gt; &lt;a href=&quot;\nhttp://i.imgur.com/6zUNyWP.jpg&quot; rel=&quot;nofollow&quot; target=&quot;_NEW&quot;&gt;\nhttp://i.imgur.com/6zUNyWP.jpg&lt;/a&gt; &lt;a href=&quot;\nhttp://i.imgur.com/7dQxTFY.jpg&quot; rel=&quot;nofollow&quot; target=&quot;_NEW&quot;&gt;\nhttp://i.imgur.com/7dQxTFY.jpg&lt;/a&gt; &lt;a href=&quot;\nhttp://i.imgur.com/RC8cott.jpg&quot; rel=&quot;nofollow&quot; target=&quot;_NEW&quot;&gt;\nhttp://i.imgur.com/RC8cott.jpg&lt;/a&gt; &lt;a href=&quot;\nhttp://i.imgur.com/BI2iL13.jpg&quot; rel=&quot;nofollow&quot; target=&quot;_NEW&quot;&gt;\nhttp://i.imgur.com/BI2iL13.jpg&lt;/a&gt; &lt;a href=&quot;\nhttp://i.imgur.com/pzSIQkW.jpg&quot; rel=&quot;nofollow&quot; target=&quot;_NEW&quot;&gt;\nhttp://i.imgur.com/pzSIQkW.jpg&lt;/a&gt;","torrent":{"xt":"urn:btih:7643d87b7120f8dabaa3ebd88dee7a9e09dbe7f8","amp;dn":"Hercules+2014+EXTENDED+HDRIP+XVID+AC3+ACAB","amp;tr":["udp%3A%2F%2Ftracker.openbittorrent.com%3A80","udp%3A%2F%2Fopen.demonii.com%3A1337","udp%3A%2F%2Ftracker.coppersurfer.tk%3A6969","udp%3A%2F%2Fexodus.desync.com%3A6969"],"infoHash":"7643d87b7120f8dabaa3ebd88dee7a9e09dbe7f8","infoHashBuffer":{"type":"Buffer","data":[118,67,216,123,113,32,248,218,186,163,235,216,141,238,122,158,9,219,231,248]},"announce":[],"urlList":[]}}